<svg width="70" height="70" viewBox="0 0 70 70" fill="none" xmlns="http://www.w3.org/2000/svg">
<rect width="70" height="70" fill="#0B0B0B"/>
<path d="M50.9222 21.6667C50.7707 21.6511 50.6181 21.6511 50.4666 21.6667H19.3555C19.1561 21.6697 18.958 21.6996 18.7666 21.7556L34.8222 37.7445L50.9222 21.6667Z" fill="#E0E0E0"/>
<path d="M52.5668 23.2111L36.389 39.3222C35.9726 39.7361 35.4094 39.9684 34.8223 39.9684C34.2352 39.9684 33.672 39.7361 33.2556 39.3222L17.2223 23.3333C17.173 23.5145 17.1469 23.7012 17.1445 23.8889V46.1111C17.1445 46.7005 17.3787 47.2657 17.7954 47.6825C18.2122 48.0992 18.7774 48.3333 19.3668 48.3333H50.4779C51.0672 48.3333 51.6325 48.0992 52.0492 47.6825C52.466 47.2657 52.7001 46.7005 52.7001 46.1111V23.8889C52.6912 23.6574 52.6463 23.4287 52.5668 23.2111ZM20.889 46.1111H19.3445V44.5222L27.4223 36.5111L28.989 38.0778L20.889 46.1111ZM50.4556 46.1111H48.9001L40.8001 38.0778L42.3668 36.5111L50.4445 44.5222L50.4556 46.1111Z" fill="#E0E0E0"/>
</svg>
