<svg width="70" height="70" viewBox="0 0 70 70" fill="none" xmlns="http://www.w3.org/2000/svg">
<rect width="70" height="70" fill="#0B0B0B"/>
<path d="M35.3333 43.6667C36.2174 43.6667 37.0652 43.3155 37.6904 42.6904C38.3155 42.0652 38.6667 41.2174 38.6667 40.3333C38.6667 39.4493 38.3155 38.6014 37.6904 37.9763C37.0652 37.3512 36.2174 37 35.3333 37C34.4493 37 33.6014 37.3512 32.9763 37.9763C32.3512 38.6014 32 39.4493 32 40.3333C32 41.2174 32.3512 42.0652 32.9763 42.6904C33.6014 43.3155 34.4493 43.6667 35.3333 43.6667ZM45.3333 28.6667C46.2174 28.6667 47.0652 29.0179 47.6904 29.643C48.3155 30.2681 48.6667 31.1159 48.6667 32V48.6667C48.6667 49.5507 48.3155 50.3986 47.6904 51.0237C47.0652 51.6488 46.2174 52 45.3333 52H25.3333C24.4493 52 23.6014 51.6488 22.9763 51.0237C22.3512 50.3986 22 49.5507 22 48.6667V32C22 31.1159 22.3512 30.2681 22.9763 29.643C23.6014 29.0179 24.4493 28.6667 25.3333 28.6667H27V25.3333C27 23.1232 27.878 21.0036 29.4408 19.4408C31.0036 17.878 33.1232 17 35.3333 17C36.4277 17 37.5113 17.2155 38.5224 17.6343C39.5334 18.0531 40.4521 18.667 41.2259 19.4408C41.9997 20.2146 42.6135 21.1333 43.0323 22.1443C43.4511 23.1554 43.6667 24.239 43.6667 25.3333V28.6667H45.3333ZM35.3333 20.3333C34.0073 20.3333 32.7355 20.8601 31.7978 21.7978C30.8601 22.7355 30.3333 24.0073 30.3333 25.3333V28.6667H40.3333V25.3333C40.3333 24.0073 39.8065 22.7355 38.8689 21.7978C37.9312 20.8601 36.6594 20.3333 35.3333 20.3333Z" fill="#E0E0E0"/>
</svg>
