<svg width="70" height="70" viewBox="0 0 70 70" fill="none" xmlns="http://www.w3.org/2000/svg">
<rect width="70" height="70" fill="#0B0B0B"/>
<path d="M46.6667 25H23.3333C21.4924 25 20 26.4924 20 28.3333V46.6667C20 48.5076 21.4924 50 23.3333 50H46.6667C48.5076 50 50 48.5076 50 46.6667V28.3333C50 26.4924 48.5076 25 46.6667 25Z" stroke="#E0E0E0" stroke-width="3.33333"/>
<path d="M20.8342 30.8333C20.8378 29.6711 20.8559 28.8048 20.948 28.1203C21.0576 27.3054 21.2581 26.8737 21.5659 26.5659C21.8737 26.2581 22.3054 26.0576 23.1203 25.948C23.9593 25.8351 25.0714 25.8333 26.6667 25.8333H43.3333C44.9286 25.8333 46.0407 25.8351 46.8797 25.948C47.6946 26.0576 48.1263 26.2581 48.4341 26.5659C48.7419 26.8737 48.9424 27.3054 49.052 28.1203C49.1441 28.8048 49.1622 29.6711 49.1658 30.8333H20.8342Z" fill="#E0E0E0" stroke="#E0E0E0" stroke-width="1.66667"/>
<path d="M26.6665 20V25M43.3332 20V25" stroke="#E0E0E0" stroke-width="3.33333" stroke-linecap="round"/>
<path d="M27.4998 35.8333H32.4998V37.5H27.4998V35.8333Z" fill="#E0E0E0" stroke="#E0E0E0" stroke-width="1.66667"/>
<path d="M27.4998 42.5H32.4998V44.1667H27.4998V42.5Z" fill="#E0E0E0" stroke="#E0E0E0" stroke-width="1.66667"/>
<path d="M37.4998 35.8333H42.4998V37.5H37.4998V35.8333Z" fill="#E0E0E0" stroke="#E0E0E0" stroke-width="1.66667"/>
<path d="M37.4998 42.5H42.4998V44.1667H37.4998V42.5Z" fill="#E0E0E0" stroke="#E0E0E0" stroke-width="1.66667"/>
</svg>
